<svg fill="#000000" version="1.1" x="0px" y="0px" viewBox="5 45.25 90 9.51"><g transform="translate(0,-952.36216)"><path style="color:#000000;font-style:normal;font-variant:normal;font-weight:normal;font-stretch:normal;font-size:medium;line-height:normal;font-family:sans-serif;text-indent:0;text-align:start;text-decoration:none;text-decoration-line:none;text-decoration-style:solid;text-decoration-color:#000000;letter-spacing:normal;word-spacing:normal;text-transform:none;direction:ltr;block-progression:tb;writing-mode:lr-tb;baseline-shift:baseline;text-anchor:start;white-space:normal;clip-rule:nonzero;display:inline;overflow:visible;visibility:visible;opacity:1;isolation:auto;mix-blend-mode:normal;color-interpolation:sRGB;color-interpolation-filters:linearRGB;solid-color:#000000;solid-opacity:1;fill:#000000;fill-opacity:1;fill-rule:nonzero;stroke:none;stroke-width:8;stroke-linecap:round;stroke-linejoin:round;stroke-miterlimit:4;stroke-dasharray:none;stroke-dashoffset:288.50640869;stroke-opacity:1;color-rendering:auto;image-rendering:auto;shape-rendering:auto;text-rendering:auto;enable-background:accumulate" d="m 9.75452,997.60766 c -2.62129,0 -4.75452,2.1332 -4.75452,4.75454 0,2.6213 2.13323,4.7545 4.75452,4.7545 2.62129,0 4.75452,-2.1332 4.75452,-4.7545 0,-2.62134 -2.13323,-4.75454 -4.75452,-4.75454 z m 13.41507,0 c -2.62129,0 -4.75453,2.1332 -4.75453,4.75454 0,2.6213 2.13324,4.7545 4.75453,4.7545 2.62128,0 4.75452,-2.1332 4.75452,-4.7545 0,-2.62134 -2.13324,-4.75454 -4.75452,-4.75454 z m 13.41525,0 c -2.62129,0 -4.75452,2.1332 -4.75452,4.75454 0,2.6213 2.13323,4.7545 4.75452,4.7545 2.62129,0 4.75452,-2.1332 4.75452,-4.7545 0,-2.62134 -2.13323,-4.75454 -4.75452,-4.75454 z m 13.41506,0 c -2.62128,0 -4.75452,2.1332 -4.75452,4.75454 0,2.6213 2.13324,4.7545 4.75452,4.7545 2.62129,0 4.75453,-2.1332 4.75453,-4.7545 0,-2.62134 -2.13324,-4.75454 -4.75453,-4.75454 z m 13.41525,0 c -2.62128,0 -4.75451,2.1332 -4.75451,4.75454 0,2.6213 2.13323,4.7545 4.75451,4.7545 2.62129,0 4.75453,-2.1332 4.75453,-4.7545 0,-2.62134 -2.13324,-4.75454 -4.75453,-4.75454 z m 13.41508,0 c -2.62129,0 -4.75453,2.1332 -4.75453,4.75454 0,2.6213 2.13324,4.7545 4.75453,4.7545 2.62128,0 4.75451,-2.1332 4.75451,-4.7545 0,-2.62134 -2.13323,-4.75454 -4.75451,-4.75454 z m 13.41524,0 c -2.62128,0 -4.75471,2.1332 -4.75471,4.75454 0,2.6213 2.13343,4.7545 4.75471,4.7545 2.62129,0 4.75453,-2.1332 4.75453,-4.7545 0,-2.62134 -2.13324,-4.75454 -4.75453,-4.75454 z m -80.49095,0.769 c 2.20565,0 3.98545,1.77984 3.98545,3.98554 0,2.2056 -1.7798,3.9854 -3.98545,3.9854 -0.0336,0 -0.0668,0 -0.10026,0 1.30079,-0.8493 2.16302,-2.317 2.16302,-3.9828 0,-1.6658 -0.86223,-3.13344 -2.16302,-3.98284 0.0334,-0.001 0.0666,0 0.10026,0 z m 26.83032,0 c 2.20565,0 3.98545,1.77984 3.98545,3.98554 0,2.2056 -1.7798,3.9854 -3.98545,3.9854 -0.19875,0 -0.39385,-0.015 -0.58469,-0.043 -0.87564,-1.0743 -1.40071,-2.446 -1.40071,-3.9426 0,-1.4966 0.52507,-2.86844 1.40071,-3.94274 0.19083,-0.028 0.38595,-0.043 0.58469,-0.043 z m 13.41506,0 c 2.20565,0 3.98545,1.77984 3.98545,3.98554 0,2.2056 -1.7798,3.9854 -3.98545,3.9854 -2.20564,0 -3.98544,-1.7798 -3.98544,-3.9854 0,-2.2057 1.7798,-3.98554 3.98544,-3.98554 z m 13.41525,0 c 0.19874,0 0.39387,0.015 0.5847,0.043 0.87564,1.0743 1.40071,2.44614 1.40071,3.94274 0,1.4966 -0.52508,2.8683 -1.40071,3.9426 -0.19083,0.028 -0.38596,0.043 -0.5847,0.043 -2.20565,0 -3.98544,-1.7798 -3.98544,-3.9854 0,-2.2057 1.77979,-3.98554 3.98544,-3.98554 z m 26.83032,0 c 0.0336,0 0.0666,0 0.10008,0 -1.3008,0.8494 -2.16303,2.31704 -2.16303,3.98284 0,1.6659 0.86223,3.1335 2.16303,3.9829 -0.0334,9e-4 -0.0664,0 -0.10008,0 -2.20565,0 -3.98563,-1.7797 -3.98563,-3.9854 0,-2.2056 1.77998,-3.98544 3.98563,-3.98544 z m -66.69135,0.019 c 2.02425,0.1928 3.60091,1.89094 3.60091,3.96674 0,2.0758 -1.57667,3.7739 -3.60091,3.9666 l 0,-7.93334 z m 52.89157,0 0,7.93334 c -2.02425,-0.1927 -3.60092,-1.8908 -3.60092,-3.9666 0,-2.0758 1.57667,-3.77394 3.60092,-3.96674 z"/></g></svg>