<svg xmlns="http://www.w3.org/2000/svg" version="1.0" preserveAspectRatio="xMidYMid meet" viewBox="0 0.21 135.1 1279.29">
<metadata>
Created by potrace 1.16, written by Peter Selinger 2001-2019
</metadata>
<g transform="translate(0.000000,1280.000000) scale(0.100000,-0.100000)" fill="#808080" stroke="none">
<path d="M506 12785 c-236 -60 -429 -254 -490 -491 -21 -80 -21 -260 -1 -339 48 -189 183 -355 356 -438 121 -58 180 -71 309 -71 185 0 340 64 470 194 84 85 129 154 168 262 25 67 27 85 27 223 0 143 -2 154 -32 231 -76 201 -226 347 -423 415 -85 29 -293 36 -384 14z m-258 -811 c73 -57 178 -109 267 -130 108 -25 287 -15 383 20 122 46 232 121 297 204 l35 45 0 -34 c0 -97 -70 -254 -150 -338 -222 -231 -576 -236 -799 -12 -95 95 -147 203 -166 346 l-7 49 41 -52 c23 -29 67 -73 99 -98z"/>
<path d="M574 10891 c-214 -34 -409 -175 -502 -361 -61 -124 -75 -188 -70 -339 4 -140 27 -222 90 -329 42 -72 158 -188 230 -230 79 -47 188 -83 277 -91 321 -32 602 143 714 443 26 69 31 99 34 201 6 141 -10 222 -62 330 -109 224 -326 366 -580 380 -44 2 -103 0 -131 -4z m656 -749 c0 -32 -31 -125 -62 -186 -36 -71 -123 -166 -195 -212 -152 -99 -359 -114 -528 -39 -159 71 -296 245 -320 408 l-7 47 556 0 c531 0 556 -1 556 -18z"/>
<path d="M553 8980 c-253 -46 -474 -253 -538 -505 -19 -77 -19 -251 0 -334 41 -173 165 -336 327 -428 130 -75 327 -103 482 -69 309 69 526 342 526 661 0 125 -19 206 -72 315 -77 156 -241 292 -418 344 -66 20 -235 29 -307 16z m299 -416 c119 -22 265 -88 354 -159 24 -19 26 -26 25 -100 -1 -156 -53 -277 -166 -390 -113 -113 -236 -165 -392 -165 -148 0 -269 49 -381 155 -98 92 -153 200 -173 340 -16 114 -8 138 63 186 200 136 422 180 670 133z"/>
<path d="M560 7073 c-51 -8 -157 -46 -215 -76 -91 -47 -221 -182 -273 -283 -53 -104 -72 -184 -72 -311 0 -133 12 -188 67 -303 39 -80 59 -108 132 -181 70 -70 102 -94 172 -128 199 -96 407 -95 609 1 109 53 236 176 293 285 104 199 104 447 0 646 -56 108 -182 230 -293 284 -47 23 -117 48 -157 57 -66 15 -202 19 -263 9z m300 -145 c375 -137 494 -604 229 -901 -207 -233 -565 -250 -792 -37 -119 111 -179 249 -179 410 0 257 169 475 422 545 81 22 236 14 320 -17z"/>
<path d="M504 5150 c-241 -63 -433 -256 -489 -491 -19 -83 -19 -257 0 -334 56 -222 232 -409 451 -481 79 -26 103 -29 209 -29 86 1 137 6 180 19 182 55 345 188 423 346 53 109 72 190 72 315 0 312 -205 578 -506 655 -100 26 -242 26 -340 0z m310 -116 c94 -24 174 -71 251 -149 124 -123 170 -244 166 -432 -1 -40 -4 -44 -62 -84 -202 -137 -460 -185 -695 -130 -96 23 -265 101 -324 150 -35 30 -35 30 -34 109 3 153 64 292 175 397 112 105 229 153 378 154 46 1 111 -6 145 -15z"/>
<path d="M595 3259 c-84 -8 -196 -45 -273 -91 -125 -73 -248 -227 -294 -368 -29 -89 -37 -290 -14 -381 47 -190 184 -359 357 -442 119 -57 179 -71 304 -71 117 0 199 19 300 69 138 68 244 174 310 310 52 108 68 189 62 330 -3 102 -8 132 -34 200 -114 304 -392 477 -718 444z m253 -145 c176 -58 311 -200 366 -383 30 -101 92 -91 -540 -91 l-556 0 7 48 c9 62 45 149 86 208 145 211 396 297 637 218z"/>
<path d="M570 1350 c-210 -33 -408 -176 -498 -360 -62 -125 -75 -189 -70 -339 3 -104 9 -139 30 -199 38 -106 83 -176 163 -257 80 -80 151 -125 257 -163 67 -25 85 -27 223 -27 131 0 158 3 215 23 201 72 348 217 426 424 26 68 28 83 29 223 0 138 -2 156 -27 223 -38 106 -83 177 -163 257 -82 82 -170 136 -277 170 -87 27 -223 39 -308 25z m215 -125 c235 -49 414 -245 444 -483 l8 -63 -26 33 c-73 96 -180 174 -305 221 -69 26 -99 31 -201 34 -89 4 -138 1 -189 -11 -136 -32 -276 -119 -361 -223 l-45 -55 6 49 c30 248 207 446 444 497 85 19 140 19 225 1z"/>
</g>
</svg>