<svg xmlns="http://www.w3.org/2000/svg" xmlns:xlink="http://www.w3.org/1999/xlink" fill="#5A5A5A" version="1.1" x="0px" y="0px" style="enable-background:new 0 0 90 90;" xml:space="preserve" viewBox="7.88 4.64 74.25 80.73"><path d="M81.169922,17.882324c-0.190491-0.002808-12.245361-0.293762-23.233032,5.556763  C60.120972,16.269226,58.959473,7.180786,58.902344,6.75c-0.037109-0.282715-0.193359-0.535645-0.429688-0.695801  c-0.235352-0.160645-0.529297-0.213867-0.804688-0.142578c-12.432434,3.11792-17.516052,10.281128-19.308472,13.756348  c-0.079285-0.133911-0.153381-0.270325-0.234497-0.40332C31.927734,9.103516,22.118164,4.192871,8.987305,4.666504  C8.486328,4.68457,8.075195,5.071777,8.02832,5.571289C7.99353,5.933533,5.070496,39.694824,27.361755,51.09375h-4.379333  c-0.552734,0-1,0.447754-1,1v4.882324c0,0.552246,0.447266,1,1,1h2.347412l3.94165,26.535156  c0.073242,0.490234,0.494141,0.853027,0.989258,0.853027h29.383789c0.495117,0,0.916016-0.362793,0.989258-0.853027  l3.94165-26.535156h2.347412c0.552734,0,1-0.447754,1-1V52.09375c0-0.552246-0.447266-1-1-1h-2.849548  c15.614868-9.990479,17.959839-31.153992,18.057556-32.110352c0.02832-0.275391-0.05957-0.550293-0.241211-0.758789  C81.707031,18.015625,81.446289,17.89209,81.169922,17.882324z M57.039063,8.148438  c0.269958,3.016602,0.71936,11.367493-1.845581,16.901428c-2.953491,1.910645-5.743408,4.324768-8.098206,7.387756  c2.173157-9.55011,6.470154-19.036438,6.520935-19.147583c0.198242-0.436035,0.05957-0.952148-0.331055-1.22998  c-0.388672-0.276855-0.922852-0.239258-1.270508,0.092285c-0.32312,0.309204-7.128235,6.897217-10.216064,14.987244  c-0.627014-1.788574-1.364563-3.564697-2.236755-5.287964C40.299255,20.033386,44.297302,11.748169,57.039063,8.148438z   M44.233765,36.906006c-0.335754-2.079834-0.790588-4.252869-1.39679-6.445862  c1.193542-4.759705,4.173035-9.299316,6.668884-12.466003C47.636475,22.853943,45.164307,30.169189,44.233765,36.906006z   M9.959961,6.641602c9.896484-0.160645,17.712891,2.98584,23.307617,9.359375  c10.36438,11.804504,9.988098,31.004272,9.766602,35.092773h-1.032471c-0.296997-1.213379-0.722717-2.869812-1.278076-4.820313  c-1.09375-3.831055-2.929688-9.592285-5.461914-15.276855c-2.432617-5.521484-5.480469-10.625488-8.350586-13.991211  c-1.168945-1.415527-2.457031-2.713867-3.829102-3.85791c-1.006836-0.84082-1.651367-1.253906-1.677734-1.271484  c-0.438477-0.279297-1.021484-0.175293-1.336914,0.242188c-0.313477,0.41748-0.25293,1.006836,0.138672,1.352051  c0.004883,0.004395,0.512695,0.45459,1.279297,1.321777c1.081055,1.222656,2.0625,2.567383,2.923828,4.010254  c2.161133,3.488281,4.241211,8.602051,5.708008,14.03418c1.551758,5.65625,2.444336,11.291504,2.918945,15.022461  c0.137268,1.081238,0.246521,2.15979,0.35553,3.234863h-0.792236C9.07843,43.488098,9.653931,12.303711,9.959961,6.641602z   M39.941711,51.09375h-4.537659c-0.115784-1.157288-0.235535-2.321899-0.383545-3.487305  c-0.483398-3.79541-1.391602-9.530273-2.973633-15.29541c-0.87793-3.251465-1.974609-6.402344-3.179688-9.184082  c1.618164,2.580566,3.19043,5.557129,4.566406,8.679688c2.485352,5.582031,4.290039,11.246582,5.366211,15.015137  C39.277771,48.499512,39.657654,49.954956,39.941711,51.09375z M58.782227,83.364258h-27.65918L27.35199,57.976074h35.201294  L58.782227,83.364258z M65.922852,53.09375v2.882324h-41.94043V53.09375h8.440247c0.001038,0,0.002075,0.000488,0.003113,0.000488  s0.002014-0.000488,0.003052-0.000488H65.922852z M48.711487,51.09375c1.237061-3.344299,3.177612-6.969604,5.331482-9.911621  c1.639648-2.286133,3.442383-4.172363,5.012695-5.61084c-1.485352,2.036621-2.783203,4.235352-3.749023,6.377441  c-1.323792,2.86731-2.328369,6.078857-2.902588,9.14502H48.711487z M59.975159,51.09375h-5.532715  c0.555481-2.795227,1.476685-5.700195,2.684509-8.314941c1.480469-3.287109,3.788086-6.709473,6.323242-9.382324l1.522461-1.568848  c0.295898-0.282715,0.583984-0.522461,0.841797-0.73877c0.152344-0.126953,0.294922-0.246582,0.412109-0.349609l1.149414-0.976074  c0.391602-0.33252,0.467773-0.908203,0.174805-1.331055c-0.291016-0.422852-0.855469-0.556152-1.306641-0.306152l-1.336914,0.741211  c-0.135742,0.078613-0.28418,0.159668-0.442383,0.246094c-0.336914,0.183594-0.713867,0.389648-1.140625,0.660156l-1.880859,1.29248  c-3.348633,2.358887-6.637695,5.621582-9.019531,8.942871c-2.405457,3.28418-4.560791,7.396912-5.834106,11.084961h-1.576599  c0.139771-1.997498,0.20282-5.825378-0.283936-10.457153c7.562317-18.94751,29.98645-20.622864,35.257141-20.74939  C79.22876,24.678711,75.299561,43.688843,59.975159,51.09375z"/></svg>