<svg xmlns="http://www.w3.org/2000/svg" fill="#5A5A5A" x="0px" y="0px" viewBox="2 2 60 60"><title>nature-plant-dry-cactus-dessert-botanical</title><g><rect x="42" y="20" width="6" height="2"/><rect x="40" y="14" width="6" height="2"/><rect x="41" y="8" width="4" height="2"/><path d="M61.75879,30.34863A.99986.99986,0,0,0,61,30H54V26h2V24H54V20h4V18H54V14h2V12H54V11a8.93944,8.93944,0,0,0-.52515-3H55V6H52.47809A8.97984,8.97984,0,0,0,39.35583,4H35V6h2.52191A8.94246,8.94246,0,0,0,36.059,10H33v2h3v4H33v2h3V30H34V25a1,1,0,0,0-1-1H27.97443A4.95129,4.95129,0,0,0,29,21V19a1,1,0,0,0-1-1H23.97638a6.94322,6.94322,0,0,0-2.02667-4.46436L18.707,10.293a.99962.99962,0,0,0-1.41406,0l-3.24268,3.24267A6.95405,6.95405,0,0,0,12,18.48535V21H6a1,1,0,0,0-1,1v3a4.95129,4.95129,0,0,0,1.02557,3H4a1,1,0,0,0-1,1v2a4.95129,4.95129,0,0,0,1.02557,3H3a.99979.99979,0,0,0-.98828,1.15186l4,26A1.00016,1.00016,0,0,0,7,62H31a1.00016,1.00016,0,0,0,.98828-.84814L32.47321,58H57a1.00016,1.00016,0,0,0,.98828-.84814l4-26A1.00059,1.00059,0,0,0,61.75879,30.34863ZM38,28h7V26H38V11A6.99338,6.99338,0,0,1,49.88965,6H47V8h4.315A6.94556,6.94556,0,0,1,52,11v1H48v2h4v4H50v2h2v4H48v2h4v4H38Zm-6,3a3.00328,3.00328,0,0,1-3,3H23V33a5.00588,5.00588,0,0,0-5-5H16.18427A2.99507,2.99507,0,0,1,19,26H32ZM27,21a3.00328,3.00328,0,0,1-3,3H19a4.93174,4.93174,0,0,0-1.34631.20752A4.964,4.964,0,0,0,16.97443,23H17a3.00328,3.00328,0,0,1,3-3h7ZM15.46436,14.94971,18,12.41406l2.53564,2.53565A4.94657,4.94657,0,0,1,21.95258,18H20a4.99047,4.99047,0,0,0-4.76135,3.55353A4.922,4.922,0,0,0,14,21.10107V18.48535A4.96765,4.96765,0,0,1,15.46436,14.94971ZM7,25V23h6a2.99419,2.99419,0,0,1,2.85974,2.14136A4.98364,4.98364,0,0,0,14.10107,28H10A3.00328,3.00328,0,0,1,7,25ZM5,31V30H18a3.00328,3.00328,0,0,1,3,3v1H8A3.00328,3.00328,0,0,1,5,31ZM30.14209,60H7.85791L4.16553,36H33.83447Zm26-4H32.78088l3.2074-20.84814A.99979.99979,0,0,0,35,34H32.97443a4.95513,4.95513,0,0,0,.9245-2H59.83447Z"/></g></svg>